<svg width="1038" height="304" viewBox="0 0 1038 304" fill="none" xmlns="http://www.w3.org/2000/svg">
<path d="M142.84 149.878C142.84 159.107 144.037 167.139 146.429 173.975C148.822 180.754 151.955 186.394 155.829 190.894C159.702 195.337 164.117 198.67 169.073 200.892C174.029 203.056 179.042 204.139 184.112 204.139C189.41 204.139 194.195 203.199 198.468 201.319C202.74 199.382 206.443 196.847 209.576 193.714C212.766 190.581 215.358 186.992 217.352 182.947C219.403 178.903 220.855 174.773 221.71 170.557H234.869C233.673 176.823 231.679 182.691 228.888 188.16C226.153 193.571 222.65 198.328 218.377 202.43C214.105 206.474 209.092 209.664 203.338 212C197.642 214.336 191.233 215.503 184.112 215.503C175.852 215.503 168.361 214.022 161.639 211.06C154.974 208.041 149.278 203.711 144.549 198.072C139.878 192.432 136.261 185.539 133.697 177.393C131.134 169.247 129.852 160.018 129.852 149.708C129.852 144.41 130.393 139.197 131.476 134.07C132.558 128.886 134.153 123.987 136.261 119.373C138.368 114.759 140.96 110.515 144.037 106.641C147.17 102.71 150.73 99.321 154.718 96.4727C158.705 93.6243 163.149 91.4027 168.048 89.8076C172.947 88.2126 178.245 87.415 183.941 87.415C191.176 87.415 197.613 88.3835 203.253 90.3203C208.893 92.2002 213.82 94.8491 218.036 98.2671C222.251 101.628 225.755 105.673 228.546 110.401C231.394 115.072 233.616 120.171 235.211 125.696H221.539C218.349 116.639 213.706 109.888 207.611 105.445C201.515 101.001 193.626 98.7798 183.941 98.7798C177.903 98.7798 172.349 100.175 167.279 102.967C162.266 105.701 157.936 109.404 154.291 114.075C150.702 118.746 147.882 124.187 145.831 130.396C143.837 136.548 142.84 143.042 142.84 149.878ZM266.144 90.9185V143.555H332.025V90.9185H344.928V212H332.025V154.92H266.144V212H253.241V90.9185H266.144ZM449.261 125.354C449.261 128.374 448.891 131.336 448.15 134.241C447.467 137.09 446.413 139.795 444.989 142.359C443.565 144.922 441.77 147.315 439.605 149.537C437.498 151.701 435.048 153.553 432.257 155.091C435.39 155.888 437.953 157.113 439.947 158.765C441.941 160.36 443.508 162.24 444.647 164.405C445.786 166.569 446.555 168.934 446.954 171.497C447.41 174.061 447.638 176.653 447.638 179.273V197.645C447.638 200.322 447.979 202.885 448.663 205.335C449.404 207.785 450.344 210.006 451.483 212H437.469C436.9 211.089 436.444 210.035 436.102 208.838C435.76 207.642 435.504 206.417 435.333 205.164C435.162 203.911 435.048 202.686 434.991 201.49C434.934 200.293 434.906 199.24 434.906 198.328V179.102C434.906 176.766 434.507 174.459 433.709 172.181C432.912 169.902 431.63 167.88 429.864 166.114C428.098 164.291 425.791 162.838 422.943 161.756C420.152 160.617 416.734 160.047 412.689 160.047H376.031V212H363.128V90.9185H412.689C418.556 90.9185 423.769 91.9438 428.326 93.9946C432.883 96.0454 436.7 98.7228 439.776 102.027C442.91 105.274 445.274 108.948 446.869 113.05C448.464 117.151 449.261 121.253 449.261 125.354ZM376.031 148.682H412.689C415.879 148.682 418.898 148.084 421.747 146.888C424.595 145.634 427.101 143.954 429.266 141.846C431.431 139.738 433.14 137.26 434.393 134.412C435.646 131.564 436.273 128.488 436.273 125.184C436.273 121.937 435.675 118.946 434.479 116.211C433.282 113.477 431.63 111.113 429.522 109.119C427.472 107.068 424.994 105.473 422.088 104.334C419.24 103.195 416.107 102.625 412.689 102.625H376.031V148.682ZM643.487 90.9185L681.939 194.141L721.161 90.9185H737.909V212H725.006V112.623L688.604 212H676.898L639.813 112.623V212H626.825V90.9185H643.487ZM775.763 90.9185V212H762.86V90.9185H775.763ZM813.788 149.878C813.788 159.107 814.984 167.139 817.376 173.975C819.769 180.754 822.902 186.394 826.776 190.894C830.65 195.337 835.064 198.67 840.021 200.892C844.977 203.056 849.99 204.139 855.06 204.139C860.357 204.139 865.143 203.199 869.415 201.319C873.688 199.382 877.39 196.847 880.523 193.714C883.714 190.581 886.306 186.992 888.299 182.947C890.35 178.903 891.803 174.773 892.657 170.557H905.816C904.62 176.823 902.626 182.691 899.835 188.16C897.101 193.571 893.597 198.328 889.325 202.43C885.052 206.474 880.039 209.664 874.286 212C868.589 214.336 862.18 215.503 855.06 215.503C846.799 215.503 839.308 214.022 832.586 211.06C825.921 208.041 820.225 203.711 815.497 198.072C810.825 192.432 807.208 185.539 804.645 177.393C802.081 169.247 800.799 160.018 800.799 149.708C800.799 144.41 801.34 139.197 802.423 134.07C803.505 128.886 805.1 123.987 807.208 119.373C809.316 114.759 811.908 110.515 814.984 106.641C818.117 102.71 821.677 99.321 825.665 96.4727C829.653 93.6243 834.096 91.4027 838.995 89.8076C843.894 88.2126 849.192 87.415 854.889 87.415C862.123 87.415 868.561 88.3835 874.2 90.3203C879.84 92.2002 884.767 94.8491 888.983 98.2671C893.198 101.628 896.702 105.673 899.493 110.401C902.341 115.072 904.563 120.171 906.158 125.696H892.486C889.296 116.639 884.653 109.888 878.558 105.445C872.463 101.001 864.573 98.7798 854.889 98.7798C848.85 98.7798 843.296 100.175 838.226 102.967C833.213 105.701 828.884 109.404 825.238 114.075C821.649 118.746 818.829 124.187 816.778 130.396C814.785 136.548 813.788 143.042 813.788 149.878Z" fill="black"/>
<path fill-rule="evenodd" clip-rule="evenodd" d="M519.483 93.2179C524.19 77.4207 546.81 77.4207 551.517 93.2179C553.311 99.2389 560.264 102.088 565.836 99.0849C580.457 91.207 596.452 107.029 588.488 121.492C585.452 127.004 588.332 133.881 594.419 135.656C610.389 140.312 610.389 162.688 594.419 167.344C588.332 169.119 585.452 175.996 588.488 181.508C596.452 195.971 580.457 211.793 565.836 203.915C560.264 200.913 553.311 203.761 551.517 209.782C546.81 225.579 524.19 225.579 519.483 209.782C517.689 203.761 510.736 200.913 505.164 203.915C490.543 211.793 474.548 195.971 482.512 181.508C485.547 175.996 482.668 169.119 476.581 167.344C460.611 162.688 460.611 140.312 476.581 135.656C482.668 133.881 485.547 127.004 482.512 121.492C474.548 107.029 490.543 91.207 505.164 99.0849C510.736 102.088 517.689 99.2389 519.483 93.2179ZM545.054 95.1022C542.246 85.679 528.753 85.679 525.945 95.1022C522.938 105.196 511.283 109.971 501.941 104.938C493.219 100.239 483.678 109.676 488.429 118.304C493.517 127.545 488.69 139.074 478.486 142.049C468.959 144.826 468.959 158.174 478.486 160.951C488.69 163.926 493.517 175.455 488.429 184.696C483.678 193.324 493.219 202.762 501.941 198.062C511.283 193.029 522.938 197.804 525.945 207.898C528.753 217.321 542.246 217.321 545.054 207.898C548.062 197.804 559.717 193.029 569.059 198.062C577.781 202.762 587.322 193.324 582.571 184.696C577.482 175.455 582.31 163.926 592.514 160.951C602.04 158.174 602.04 144.826 592.514 142.049C582.31 139.074 577.482 127.545 582.571 118.304C587.322 109.676 577.781 100.239 569.059 104.938C559.717 109.971 548.062 105.196 545.054 95.1022Z" fill="url(#paint0_linear_7_153)"/>
<g filter="url(#filter0_d_7_153)">
<path fill-rule="evenodd" clip-rule="evenodd" d="M543.044 91.5654C544.598 89.6478 546.387 88.2056 548.3 87.1941C559.203 81.4283 574.133 89.6552 572.681 103.592C572.031 109.837 577.37 115.082 583.678 114.396C600.227 112.597 608.954 133.241 596.037 143.631C591.114 147.591 591.139 155.035 596.09 158.962C609.078 169.266 600.493 189.967 583.931 188.279C577.619 187.636 572.316 192.917 573.009 199.157C574.828 215.527 553.959 224.16 543.455 211.383C539.451 206.512 531.926 206.538 527.956 211.435C517.54 224.283 496.612 215.79 498.319 199.408C498.969 193.164 493.63 187.918 487.322 188.604C470.773 190.403 462.046 169.759 474.963 159.369C479.886 155.409 479.861 147.965 474.91 144.038C461.922 133.734 470.507 113.033 487.069 114.721C493.381 115.364 498.684 110.083 497.991 103.843C496.172 87.4726 517.041 78.8398 527.545 91.6175C531.549 96.4876 539.074 96.4623 543.044 91.5654ZM565.979 102.909C566.842 94.6235 557.999 89.7212 551.501 93.0932C550.335 93.6982 549.245 94.5694 548.3 95.7351C547.643 96.5452 546.928 97.2758 546.167 97.9268C539.212 103.873 528.367 103.181 522.318 95.8223C516.052 88.2003 503.603 93.3499 504.688 103.115C505.85 113.575 496.96 122.429 486.378 121.351C476.499 120.344 471.378 132.692 479.126 138.838C487.425 145.422 487.467 157.901 479.214 164.54C471.508 170.738 476.714 183.052 486.586 181.979C497.161 180.829 506.111 189.623 505.021 200.091C504.003 209.863 516.487 214.929 522.7 207.265C529.355 199.056 541.971 199.013 548.682 207.178C554.948 214.8 567.397 209.65 566.312 199.885C565.15 189.425 574.04 180.571 584.622 181.65C594.501 182.656 599.622 170.308 591.874 164.162C583.575 157.578 583.533 145.099 591.786 138.46C599.491 132.262 594.286 119.948 584.414 121.021C573.839 122.171 564.889 113.377 565.979 102.909Z" fill="#A8A9AD"/>
<path fill-rule="evenodd" clip-rule="evenodd" d="M543.044 91.5654C544.598 89.6478 546.387 88.2056 548.3 87.1941C559.203 81.4283 574.133 89.6552 572.681 103.592C572.031 109.837 577.37 115.082 583.678 114.396C600.227 112.597 608.954 133.241 596.037 143.631C591.114 147.591 591.139 155.035 596.09 158.962C609.078 169.266 600.493 189.967 583.931 188.279C577.619 187.636 572.316 192.917 573.009 199.157C574.828 215.527 553.959 224.16 543.455 211.383C539.451 206.512 531.926 206.538 527.956 211.435C517.54 224.283 496.612 215.79 498.319 199.408C498.969 193.164 493.63 187.918 487.322 188.604C470.773 190.403 462.046 169.759 474.963 159.369C479.886 155.409 479.861 147.965 474.91 144.038C461.922 133.734 470.507 113.033 487.069 114.721C493.381 115.364 498.684 110.083 497.991 103.843C496.172 87.4726 517.041 78.8398 527.545 91.6175C531.549 96.4876 539.074 96.4623 543.044 91.5654ZM565.979 102.909C566.842 94.6235 557.999 89.7212 551.501 93.0932C550.335 93.6982 549.245 94.5694 548.3 95.7351C547.643 96.5452 546.928 97.2758 546.167 97.9268C539.212 103.873 528.367 103.181 522.318 95.8223C516.052 88.2003 503.603 93.3499 504.688 103.115C505.85 113.575 496.96 122.429 486.378 121.351C476.499 120.344 471.378 132.692 479.126 138.838C487.425 145.422 487.467 157.901 479.214 164.54C471.508 170.738 476.714 183.052 486.586 181.979C497.161 180.829 506.111 189.623 505.021 200.091C504.003 209.863 516.487 214.929 522.7 207.265C529.355 199.056 541.971 199.013 548.682 207.178C554.948 214.8 567.397 209.65 566.312 199.885C565.15 189.425 574.04 180.571 584.622 181.65C594.501 182.656 599.622 170.308 591.874 164.162C583.575 157.578 583.533 145.099 591.786 138.46C599.491 132.262 594.286 119.948 584.414 121.021C573.839 122.171 564.889 113.377 565.979 102.909Z" stroke="black"/>
</g>
<path d="M546.307 98.0418C545.377 95.4109 544.646 93.9532 543.079 91.377L543.781 87.4892L548.413 87.2115C549.984 89.5255 550.651 90.8595 551.501 93.3209L546.307 98.0418Z" fill="#2A2934"/>
<path d="M581.271 121.091C582.521 118.593 583.063 117.057 583.827 114.147L587.126 111.923L590.567 115.003C589.995 117.732 589.498 119.137 588.315 121.459L581.271 121.091Z" fill="#2A2934"/>
<path d="M589.506 162.195C592.145 161.218 593.602 160.464 596.172 158.857L600.116 159.467L600.498 164.042C598.193 165.646 596.859 166.335 594.39 167.229L589.506 162.195Z" fill="#2A2934"/>
<path d="M566.133 196.794C568.667 198.011 570.225 198.536 573.172 199.27L575.445 202.517L572.358 205.944C569.594 205.398 568.17 204.917 565.814 203.764L566.133 196.794Z" fill="#2A2934"/>
<path d="M524.69 204.863C525.658 207.481 526.41 208.928 528.014 211.482L527.368 215.379L522.74 215.722C521.136 213.43 520.45 212.106 519.565 209.656L524.69 204.863Z" fill="#2A2934"/>
<path d="M489.524 181.687C488.373 184.231 487.892 185.787 487.243 188.724L484.033 191.073L480.473 188.128C480.938 185.379 481.379 183.956 482.471 181.59L489.524 181.687Z" fill="#2A2934"/>
<path d="M481.598 140.808C478.939 141.728 477.465 142.451 474.861 144.002L470.931 143.308L470.65 138.726C472.989 137.171 474.337 136.511 476.825 135.671L481.598 140.808Z" fill="#2A2934"/>
<path d="M504.933 106.049C502.369 104.894 500.799 104.408 497.834 103.747L495.481 100.556L498.481 97.0547C501.257 97.5323 502.693 97.9782 505.078 99.0732L504.933 106.049Z" fill="#2A2934"/>
<path d="M479.406 243.125C479.406 244.444 479.577 245.591 479.918 246.568C480.26 247.536 480.708 248.342 481.261 248.985C481.815 249.62 482.445 250.096 483.153 250.413C483.861 250.722 484.577 250.877 485.302 250.877C486.059 250.877 486.742 250.743 487.353 250.474C487.963 250.197 488.492 249.835 488.939 249.388C489.395 248.94 489.765 248.427 490.05 247.85C490.343 247.272 490.551 246.682 490.673 246.08H492.553C492.382 246.975 492.097 247.813 491.698 248.594C491.308 249.367 490.807 250.047 490.197 250.633C489.586 251.211 488.87 251.666 488.048 252C487.235 252.334 486.319 252.5 485.302 252.5C484.122 252.5 483.052 252.289 482.091 251.866C481.139 251.434 480.325 250.816 479.65 250.01C478.983 249.205 478.466 248.22 478.1 247.056C477.733 245.892 477.55 244.574 477.55 243.101C477.55 242.344 477.628 241.6 477.782 240.867C477.937 240.127 478.165 239.427 478.466 238.768C478.767 238.108 479.137 237.502 479.577 236.949C480.024 236.387 480.533 235.903 481.103 235.496C481.672 235.089 482.307 234.772 483.007 234.544C483.707 234.316 484.464 234.202 485.277 234.202C486.311 234.202 487.23 234.34 488.036 234.617C488.842 234.886 489.546 235.264 490.148 235.752C490.75 236.233 491.251 236.81 491.649 237.486C492.056 238.153 492.374 238.882 492.602 239.671H490.648C490.193 238.377 489.529 237.413 488.659 236.778C487.788 236.143 486.661 235.826 485.277 235.826C484.415 235.826 483.621 236.025 482.897 236.424C482.181 236.814 481.562 237.343 481.042 238.011C480.529 238.678 480.126 239.455 479.833 240.342C479.548 241.221 479.406 242.149 479.406 243.125ZM495.202 245.799C495.202 244.912 495.324 244.078 495.568 243.296C495.82 242.515 496.182 241.832 496.654 241.246C497.134 240.66 497.724 240.2 498.424 239.866C499.124 239.524 499.926 239.354 500.829 239.354C501.732 239.354 502.538 239.524 503.246 239.866C503.954 240.2 504.548 240.66 505.028 241.246C505.508 241.832 505.875 242.515 506.127 243.296C506.379 244.078 506.505 244.912 506.505 245.799C506.505 246.686 506.379 247.52 506.127 248.301C505.875 249.083 505.508 249.762 505.028 250.34C504.548 250.918 503.954 251.377 503.246 251.719C502.538 252.053 501.732 252.22 500.829 252.22C499.926 252.22 499.124 252.053 498.424 251.719C497.724 251.377 497.134 250.918 496.654 250.34C496.182 249.762 495.82 249.083 495.568 248.301C495.324 247.52 495.202 246.686 495.202 245.799ZM497.021 245.799C497.021 246.458 497.106 247.081 497.277 247.667C497.456 248.252 497.708 248.761 498.034 249.192C498.367 249.624 498.77 249.965 499.242 250.218C499.714 250.47 500.243 250.596 500.829 250.596C501.415 250.596 501.944 250.47 502.416 250.218C502.888 249.965 503.287 249.624 503.612 249.192C503.946 248.761 504.202 248.252 504.381 247.667C504.56 247.081 504.65 246.458 504.65 245.799C504.65 245.14 504.56 244.517 504.381 243.931C504.202 243.345 503.946 242.833 503.612 242.393C503.287 241.954 502.888 241.608 502.416 241.355C501.944 241.103 501.415 240.977 500.829 240.977C500.243 240.977 499.714 241.103 499.242 241.355C498.77 241.608 498.367 241.954 498.034 242.393C497.708 242.833 497.456 243.345 497.277 243.931C497.106 244.517 497.021 245.14 497.021 245.799ZM509.191 239.573H511.022V241.526C511.282 241.136 511.571 240.806 511.889 240.538C512.214 240.261 512.548 240.037 512.89 239.866C513.231 239.687 513.573 239.557 513.915 239.476C514.265 239.394 514.599 239.354 514.916 239.354C515.225 239.354 515.526 239.394 515.819 239.476C516.12 239.557 516.409 239.687 516.686 239.866C516.963 240.045 517.227 240.281 517.479 240.574C517.74 240.859 517.984 241.209 518.212 241.624C518.448 241.217 518.725 240.871 519.042 240.586C519.359 240.293 519.697 240.053 520.055 239.866C520.413 239.679 520.779 239.545 521.154 239.463C521.528 239.374 521.89 239.329 522.24 239.329C522.81 239.329 523.331 239.427 523.803 239.622C524.283 239.809 524.694 240.074 525.036 240.416C525.386 240.749 525.658 241.148 525.854 241.612C526.049 242.068 526.146 242.564 526.146 243.101V252H524.315V243.626C524.315 243.105 524.242 242.678 524.096 242.344C523.949 242.002 523.758 241.73 523.522 241.526C523.286 241.323 523.021 241.181 522.729 241.099C522.444 241.018 522.155 240.977 521.862 240.977C521.479 240.977 521.093 241.062 520.702 241.233C520.32 241.404 519.974 241.64 519.665 241.941C519.355 242.243 519.103 242.601 518.908 243.016C518.712 243.423 518.615 243.866 518.615 244.346V252H516.796V243.626C516.796 243.105 516.719 242.678 516.564 242.344C516.417 242.002 516.23 241.73 516.002 241.526C515.775 241.323 515.522 241.181 515.246 241.099C514.977 241.018 514.717 240.977 514.464 240.977C513.984 240.977 513.533 241.091 513.109 241.319C512.694 241.539 512.332 241.823 512.023 242.173C511.714 242.515 511.47 242.894 511.291 243.309C511.111 243.715 511.022 244.106 511.022 244.48V252H509.191V239.573ZM528.893 239.573H530.712V241.453C530.924 241.111 531.176 240.806 531.469 240.538C531.762 240.269 532.071 240.045 532.396 239.866C532.73 239.679 533.068 239.541 533.41 239.451C533.76 239.354 534.097 239.305 534.423 239.305C535.261 239.305 536.01 239.476 536.669 239.817C537.336 240.151 537.894 240.611 538.341 241.197C538.797 241.775 539.143 242.454 539.379 243.235C539.623 244.017 539.745 244.855 539.745 245.75C539.745 246.645 539.627 247.487 539.391 248.277C539.163 249.058 538.821 249.742 538.366 250.328C537.918 250.914 537.365 251.377 536.706 251.719C536.055 252.053 535.31 252.22 534.472 252.22C534.154 252.22 533.821 252.175 533.471 252.085C533.121 251.996 532.779 251.866 532.445 251.695C532.112 251.516 531.794 251.296 531.493 251.036C531.2 250.767 530.94 250.462 530.712 250.12V257.103H528.893V239.573ZM530.712 245.945C530.728 246.588 530.826 247.194 531.005 247.764C531.192 248.326 531.444 248.818 531.762 249.241C532.079 249.656 532.453 249.986 532.885 250.23C533.324 250.474 533.808 250.596 534.337 250.596C534.875 250.596 535.363 250.47 535.802 250.218C536.242 249.965 536.616 249.62 536.925 249.18C537.235 248.741 537.471 248.228 537.633 247.642C537.804 247.048 537.89 246.417 537.89 245.75C537.89 245.083 537.804 244.456 537.633 243.87C537.471 243.284 537.235 242.776 536.925 242.344C536.616 241.905 536.242 241.559 535.802 241.307C535.363 241.054 534.875 240.928 534.337 240.928C533.8 240.928 533.308 241.054 532.86 241.307C532.421 241.559 532.038 241.905 531.713 242.344C531.396 242.776 531.147 243.284 530.968 243.87C530.797 244.456 530.712 245.083 530.712 245.75V245.945ZM542.37 239.573H544.188L544.115 241.478C544.498 240.786 544.949 240.261 545.47 239.903C545.999 239.537 546.614 239.354 547.313 239.354C547.444 239.354 547.586 239.366 547.741 239.39C547.903 239.415 548.046 239.451 548.168 239.5V241.38C547.777 241.242 547.476 241.172 547.265 241.172C546.776 241.172 546.341 241.266 545.958 241.453C545.584 241.632 545.263 241.876 544.994 242.186C544.734 242.487 544.534 242.841 544.396 243.248C544.258 243.646 544.188 244.065 544.188 244.505V252H542.37V239.573ZM552.086 246.128C552.095 246.706 552.196 247.268 552.392 247.813C552.587 248.358 552.851 248.842 553.185 249.266C553.527 249.681 553.926 250.014 554.381 250.267C554.837 250.519 555.329 250.645 555.858 250.645C557.649 250.645 558.833 249.815 559.411 248.155H561.083C560.945 248.806 560.709 249.388 560.375 249.9C560.041 250.405 559.639 250.832 559.167 251.182C558.703 251.524 558.186 251.788 557.616 251.976C557.055 252.155 556.469 252.244 555.858 252.244C554.988 252.244 554.198 252.065 553.49 251.707C552.79 251.349 552.192 250.869 551.696 250.267C551.208 249.656 550.829 248.952 550.561 248.155C550.292 247.349 550.158 246.499 550.158 245.604C550.158 244.773 550.288 243.98 550.548 243.223C550.817 242.466 551.195 241.803 551.684 241.233C552.18 240.656 552.778 240.2 553.478 239.866C554.178 239.524 554.963 239.354 555.834 239.354C556.672 239.354 557.429 239.508 558.104 239.817C558.788 240.118 559.366 240.538 559.838 241.075C560.318 241.612 560.684 242.251 560.937 242.991C561.197 243.732 561.327 244.533 561.327 245.396V246.128H552.086ZM559.435 244.7C559.419 244.179 559.321 243.691 559.142 243.235C558.971 242.78 558.723 242.385 558.397 242.051C558.08 241.718 557.694 241.457 557.238 241.27C556.79 241.075 556.282 240.977 555.712 240.977C555.199 240.977 554.723 241.079 554.284 241.282C553.852 241.486 553.474 241.762 553.148 242.112C552.823 242.454 552.567 242.849 552.379 243.296C552.192 243.744 552.095 244.212 552.086 244.7H559.435ZM565.819 234.605V241.331C566.072 240.957 566.352 240.643 566.662 240.391C566.971 240.139 567.296 239.935 567.638 239.781C567.988 239.626 568.35 239.516 568.725 239.451C569.107 239.386 569.498 239.354 569.896 239.354C570.491 239.354 571.036 239.447 571.532 239.634C572.029 239.821 572.456 240.082 572.814 240.416C573.172 240.749 573.449 241.144 573.644 241.6C573.847 242.055 573.949 242.548 573.949 243.077V252H572.13V243.394C572.13 242.955 572.057 242.584 571.911 242.283C571.764 241.974 571.565 241.726 571.312 241.539C571.068 241.343 570.784 241.201 570.458 241.111C570.141 241.022 569.811 240.977 569.469 240.977C569.038 240.977 568.603 241.067 568.163 241.246C567.732 241.425 567.341 241.673 566.991 241.99C566.649 242.299 566.369 242.666 566.149 243.089C565.929 243.512 565.819 243.968 565.819 244.456V252H563.976V234.605H565.819ZM578.527 246.128C578.535 246.706 578.637 247.268 578.832 247.813C579.027 248.358 579.292 248.842 579.625 249.266C579.967 249.681 580.366 250.014 580.822 250.267C581.278 250.519 581.77 250.645 582.299 250.645C584.089 250.645 585.273 249.815 585.851 248.155H587.523C587.385 248.806 587.149 249.388 586.815 249.9C586.482 250.405 586.079 250.832 585.607 251.182C585.143 251.524 584.626 251.788 584.057 251.976C583.495 252.155 582.909 252.244 582.299 252.244C581.428 252.244 580.639 252.065 579.931 251.707C579.231 251.349 578.633 250.869 578.136 250.267C577.648 249.656 577.27 248.952 577.001 248.155C576.732 247.349 576.598 246.499 576.598 245.604C576.598 244.773 576.728 243.98 576.989 243.223C577.257 242.466 577.636 241.803 578.124 241.233C578.62 240.656 579.219 240.2 579.918 239.866C580.618 239.524 581.404 239.354 582.274 239.354C583.113 239.354 583.869 239.508 584.545 239.817C585.229 240.118 585.806 240.538 586.278 241.075C586.758 241.612 587.125 242.251 587.377 242.991C587.637 243.732 587.768 244.533 587.768 245.396V246.128H578.527ZM585.875 244.7C585.859 244.179 585.762 243.691 585.583 243.235C585.412 242.78 585.163 242.385 584.838 242.051C584.521 241.718 584.134 241.457 583.678 241.27C583.231 241.075 582.722 240.977 582.152 240.977C581.64 240.977 581.164 241.079 580.724 241.282C580.293 241.486 579.914 241.762 579.589 242.112C579.263 242.454 579.007 242.849 578.82 243.296C578.633 243.744 578.535 244.212 578.527 244.7H585.875ZM590.417 239.573H592.26V241.453C592.903 240.713 593.598 240.18 594.347 239.854C595.096 239.52 595.861 239.354 596.642 239.354C597.228 239.354 597.749 239.439 598.205 239.61C598.668 239.781 599.059 240.029 599.376 240.354C599.702 240.672 599.946 241.062 600.109 241.526C600.28 241.982 600.365 242.499 600.365 243.077V252H598.546V243.296C598.546 242.873 598.493 242.515 598.388 242.222C598.29 241.921 598.144 241.681 597.948 241.502C597.753 241.315 597.513 241.181 597.228 241.099C596.951 241.018 596.638 240.977 596.288 240.977C595.727 240.977 595.202 241.079 594.713 241.282C594.225 241.478 593.798 241.742 593.432 242.076C593.065 242.401 592.777 242.78 592.565 243.211C592.361 243.634 592.26 244.074 592.26 244.529V252H590.417V239.573ZM604.894 248.155C604.902 248.611 604.979 248.997 605.126 249.314C605.281 249.632 605.484 249.888 605.736 250.083C605.989 250.279 606.286 250.421 606.627 250.511C606.977 250.6 607.356 250.645 607.763 250.645C608.096 250.645 608.442 250.617 608.8 250.56C609.167 250.494 609.5 250.389 609.801 250.242C610.111 250.096 610.363 249.896 610.558 249.644C610.762 249.392 610.863 249.07 610.863 248.68C610.863 248.33 610.757 248.029 610.546 247.776C610.334 247.524 610.054 247.304 609.704 247.117C609.354 246.922 608.955 246.751 608.507 246.604C608.068 246.45 607.616 246.291 607.152 246.128C606.688 245.958 606.233 245.774 605.785 245.579C605.346 245.384 604.951 245.152 604.601 244.883C604.251 244.607 603.97 244.285 603.759 243.919C603.547 243.545 603.441 243.097 603.441 242.576C603.441 242.031 603.559 241.555 603.795 241.148C604.04 240.741 604.361 240.407 604.76 240.147C605.159 239.878 605.618 239.679 606.139 239.549C606.66 239.419 607.201 239.354 607.763 239.354C608.397 239.354 608.987 239.423 609.533 239.561C610.086 239.691 610.566 239.895 610.973 240.171C611.38 240.448 611.701 240.802 611.938 241.233C612.182 241.657 612.316 242.161 612.34 242.747C612.186 242.747 612.015 242.743 611.828 242.735C611.64 242.727 611.486 242.723 611.364 242.723H610.485C610.444 242.389 610.342 242.112 610.18 241.893C610.025 241.665 609.826 241.486 609.582 241.355C609.346 241.217 609.069 241.119 608.751 241.062C608.442 241.006 608.113 240.977 607.763 240.977C606.957 240.977 606.343 241.128 605.919 241.429C605.496 241.722 605.285 242.112 605.285 242.601C605.285 242.926 605.39 243.211 605.602 243.455C605.814 243.691 606.094 243.903 606.444 244.09C606.794 244.277 607.189 244.452 607.628 244.615C608.076 244.778 608.532 244.944 608.996 245.115C609.468 245.278 609.923 245.457 610.363 245.652C610.81 245.848 611.209 246.076 611.559 246.336C611.909 246.596 612.19 246.902 612.401 247.251C612.613 247.593 612.719 248 612.719 248.472C612.719 249.148 612.584 249.725 612.316 250.206C612.047 250.678 611.685 251.068 611.229 251.377C610.782 251.679 610.257 251.898 609.655 252.037C609.053 252.175 608.422 252.244 607.763 252.244C607.128 252.244 606.526 252.163 605.956 252C605.386 251.829 604.886 251.573 604.455 251.231C604.023 250.889 603.677 250.462 603.417 249.949C603.157 249.437 603.014 248.838 602.99 248.155H604.894ZM617.614 234.605V236.753H615.795V234.605H617.614ZM617.614 239.573V252H615.795V239.573H617.614ZM624.621 249.827L628.295 239.573H630.236L625.67 252H623.668L619.066 239.573H621.044L624.621 249.827ZM633.825 246.128C633.833 246.706 633.935 247.268 634.13 247.813C634.325 248.358 634.59 248.842 634.923 249.266C635.265 249.681 635.664 250.014 636.12 250.267C636.575 250.519 637.068 250.645 637.597 250.645C639.387 250.645 640.571 249.815 641.149 248.155H642.821C642.683 248.806 642.447 249.388 642.113 249.9C641.78 250.405 641.377 250.832 640.905 251.182C640.441 251.524 639.924 251.788 639.354 251.976C638.793 252.155 638.207 252.244 637.597 252.244C636.726 252.244 635.937 252.065 635.229 251.707C634.529 251.349 633.931 250.869 633.434 250.267C632.946 249.656 632.567 248.952 632.299 248.155C632.03 247.349 631.896 246.499 631.896 245.604C631.896 244.773 632.026 243.98 632.287 243.223C632.555 242.466 632.934 241.803 633.422 241.233C633.918 240.656 634.516 240.2 635.216 239.866C635.916 239.524 636.701 239.354 637.572 239.354C638.41 239.354 639.167 239.508 639.843 239.817C640.526 240.118 641.104 240.538 641.576 241.075C642.056 241.612 642.423 242.251 642.675 242.991C642.935 243.732 643.065 244.533 643.065 245.396V246.128H633.825ZM641.173 244.7C641.157 244.179 641.059 243.691 640.88 243.235C640.709 242.78 640.461 242.385 640.136 242.051C639.818 241.718 639.432 241.457 638.976 241.27C638.528 241.075 638.02 240.977 637.45 240.977C636.938 240.977 636.461 241.079 636.022 241.282C635.591 241.486 635.212 241.762 634.887 242.112C634.561 242.454 634.305 242.849 634.118 243.296C633.931 243.744 633.833 244.212 633.825 244.7H641.173ZM655.053 234.703V242.222H664.464V234.703H666.308V252H664.464V243.846H655.053V252H653.209V234.703H655.053ZM669.262 242.906C669.294 242.295 669.461 241.766 669.762 241.319C670.063 240.871 670.442 240.501 670.897 240.208C671.361 239.915 671.874 239.699 672.436 239.561C672.997 239.423 673.555 239.354 674.108 239.354C674.718 239.354 675.312 239.423 675.89 239.561C676.468 239.691 676.981 239.903 677.428 240.196C677.876 240.489 678.234 240.871 678.502 241.343C678.771 241.807 678.905 242.369 678.905 243.028V249.571C678.905 249.701 678.93 249.831 678.979 249.961C679.027 250.092 679.092 250.21 679.174 250.315C679.255 250.413 679.349 250.494 679.455 250.56C679.569 250.617 679.687 250.645 679.809 250.645C679.898 250.645 679.988 250.637 680.077 250.621C680.175 250.596 680.285 250.564 680.407 250.523V252.024C680.146 252.098 679.923 252.151 679.735 252.183C679.556 252.224 679.357 252.244 679.137 252.244C678.608 252.244 678.169 252.049 677.819 251.658C677.477 251.268 677.282 250.665 677.233 249.852C676.842 250.364 676.456 250.779 676.073 251.097C675.691 251.406 675.308 251.646 674.926 251.817C674.551 251.988 674.169 252.102 673.778 252.159C673.396 252.216 673.005 252.244 672.606 252.244C672.094 252.244 671.614 252.163 671.166 252C670.718 251.837 670.328 251.605 669.994 251.304C669.669 250.995 669.408 250.625 669.213 250.193C669.026 249.762 668.932 249.282 668.932 248.753C668.932 248.224 669.046 247.772 669.274 247.398C669.51 247.015 669.819 246.69 670.202 246.421C670.584 246.153 671.02 245.925 671.508 245.738C671.996 245.551 672.493 245.384 672.997 245.237C673.502 245.091 673.998 244.952 674.486 244.822C674.975 244.692 675.41 244.546 675.792 244.383C676.175 244.22 676.48 244.033 676.708 243.821C676.944 243.602 677.062 243.337 677.062 243.028C677.062 242.304 676.798 241.783 676.269 241.465C675.74 241.14 675.003 240.977 674.059 240.977C673.693 240.977 673.343 241.014 673.009 241.087C672.684 241.16 672.395 241.274 672.143 241.429C671.89 241.583 671.679 241.783 671.508 242.027C671.337 242.271 671.227 242.564 671.178 242.906H669.262ZM677.062 244.981C676.81 245.25 676.476 245.473 676.061 245.652C675.654 245.831 675.215 245.994 674.743 246.141C674.279 246.279 673.807 246.413 673.327 246.543C672.855 246.674 672.427 246.832 672.045 247.02C671.662 247.199 671.349 247.418 671.105 247.679C670.869 247.939 670.751 248.265 670.751 248.655C670.751 249.013 670.812 249.319 670.934 249.571C671.056 249.815 671.219 250.018 671.422 250.181C671.626 250.344 671.854 250.462 672.106 250.535C672.366 250.608 672.627 250.645 672.887 250.645C673.652 250.645 674.397 250.417 675.121 249.961C675.854 249.498 676.5 248.785 677.062 247.825V244.981ZM683.043 239.573H684.862L684.789 241.478C685.172 240.786 685.623 240.261 686.144 239.903C686.673 239.537 687.287 239.354 687.987 239.354C688.118 239.354 688.26 239.366 688.415 239.39C688.577 239.415 688.72 239.451 688.842 239.5V241.38C688.451 241.242 688.15 241.172 687.938 241.172C687.45 241.172 687.015 241.266 686.632 241.453C686.258 241.632 685.937 241.876 685.668 242.186C685.408 242.487 685.208 242.841 685.07 243.248C684.931 243.646 684.862 244.065 684.862 244.505V252H683.043V239.573ZM693.627 235.875V239.573H695.556V241.148H693.627V249.205C693.627 249.481 693.66 249.713 693.725 249.9C693.798 250.079 693.896 250.226 694.018 250.34C694.14 250.446 694.282 250.523 694.445 250.572C694.616 250.621 694.803 250.645 695.006 250.645C695.128 250.645 695.255 250.641 695.385 250.633C695.523 250.617 695.682 250.588 695.861 250.547V252.049C695.633 252.114 695.381 252.163 695.104 252.195C694.835 252.228 694.563 252.244 694.286 252.244C693.952 252.244 693.635 252.199 693.334 252.11C693.033 252.028 692.764 251.894 692.528 251.707C692.3 251.512 692.117 251.264 691.979 250.962C691.849 250.661 691.784 250.291 691.784 249.852V241.148H689.855V239.573H691.784V235.875H693.627ZM705.297 241.648L702.428 252H700.5L696.923 239.573H698.803L701.476 249.729L704.271 239.573H706.322L709.044 249.729L711.803 239.573H713.671L710.119 252H708.178L705.297 241.648ZM717.37 246.128C717.378 246.706 717.479 247.268 717.675 247.813C717.87 248.358 718.135 248.842 718.468 249.266C718.81 249.681 719.209 250.014 719.665 250.267C720.12 250.519 720.613 250.645 721.142 250.645C722.932 250.645 724.116 249.815 724.694 248.155H726.366C726.228 248.806 725.992 249.388 725.658 249.9C725.325 250.405 724.922 250.832 724.45 251.182C723.986 251.524 723.469 251.788 722.899 251.976C722.338 252.155 721.752 252.244 721.142 252.244C720.271 252.244 719.481 252.065 718.773 251.707C718.074 251.349 717.475 250.869 716.979 250.267C716.491 249.656 716.112 248.952 715.844 248.155C715.575 247.349 715.441 246.499 715.441 245.604C715.441 244.773 715.571 243.98 715.832 243.223C716.1 242.466 716.479 241.803 716.967 241.233C717.463 240.656 718.061 240.2 718.761 239.866C719.461 239.524 720.246 239.354 721.117 239.354C721.955 239.354 722.712 239.508 723.388 239.817C724.071 240.118 724.649 240.538 725.121 241.075C725.601 241.612 725.967 242.251 726.22 242.991C726.48 243.732 726.61 244.533 726.61 245.396V246.128H717.37ZM724.718 244.7C724.702 244.179 724.604 243.691 724.425 243.235C724.254 242.78 724.006 242.385 723.681 242.051C723.363 241.718 722.977 241.457 722.521 241.27C722.073 241.075 721.565 240.977 720.995 240.977C720.482 240.977 720.006 241.079 719.567 241.282C719.136 241.486 718.757 241.762 718.432 242.112C718.106 242.454 717.85 242.849 717.663 243.296C717.475 243.744 717.378 244.212 717.37 244.7H724.718ZM731.554 234.605V252H729.735V234.605H731.554ZM736.852 234.605V252H735.033V234.605H736.852ZM762.902 243.37C762.902 244.704 762.727 245.929 762.377 247.044C762.035 248.151 761.535 249.107 760.875 249.913C760.216 250.71 759.403 251.333 758.434 251.78C757.474 252.228 756.371 252.452 755.126 252.452C753.889 252.452 752.786 252.228 751.818 251.78C750.858 251.333 750.048 250.71 749.389 249.913C748.729 249.107 748.229 248.151 747.887 247.044C747.545 245.929 747.375 244.704 747.375 243.37C747.375 242.043 747.545 240.822 747.887 239.708C748.229 238.593 748.729 237.636 749.389 236.839C750.048 236.041 750.858 235.419 751.818 234.971C752.786 234.524 753.889 234.3 755.126 234.3C756.371 234.3 757.474 234.524 758.434 234.971C759.403 235.419 760.216 236.041 760.875 236.839C761.535 237.636 762.035 238.593 762.377 239.708C762.727 240.822 762.902 242.043 762.902 243.37ZM761.046 243.37C761.046 242.198 760.892 241.152 760.583 240.232C760.281 239.313 759.862 238.536 759.325 237.901C758.796 237.258 758.17 236.77 757.445 236.436C756.729 236.094 755.956 235.923 755.126 235.923C754.296 235.923 753.519 236.094 752.794 236.436C752.078 236.77 751.456 237.258 750.927 237.901C750.398 238.536 749.983 239.313 749.682 240.232C749.381 241.152 749.23 242.198 749.23 243.37C749.23 244.542 749.381 245.587 749.682 246.507C749.983 247.426 750.398 248.208 750.927 248.851C751.456 249.493 752.078 249.986 752.794 250.328C753.519 250.661 754.296 250.828 755.126 250.828C755.956 250.828 756.729 250.661 757.445 250.328C758.17 249.986 758.796 249.493 759.325 248.851C759.862 248.208 760.281 247.426 760.583 246.507C760.892 245.587 761.046 244.542 761.046 243.37ZM765.587 239.573H767.418V241.526C767.679 241.136 767.968 240.806 768.285 240.538C768.611 240.261 768.944 240.037 769.286 239.866C769.628 239.687 769.97 239.557 770.312 239.476C770.661 239.394 770.995 239.354 771.312 239.354C771.622 239.354 771.923 239.394 772.216 239.476C772.517 239.557 772.806 239.687 773.083 239.866C773.359 240.045 773.624 240.281 773.876 240.574C774.136 240.859 774.381 241.209 774.608 241.624C774.844 241.217 775.121 240.871 775.438 240.586C775.756 240.293 776.094 240.053 776.452 239.866C776.81 239.679 777.176 239.545 777.55 239.463C777.925 239.374 778.287 239.329 778.637 239.329C779.206 239.329 779.727 239.427 780.199 239.622C780.679 239.809 781.09 240.074 781.432 240.416C781.782 240.749 782.055 241.148 782.25 241.612C782.445 242.068 782.543 242.564 782.543 243.101V252H780.712V243.626C780.712 243.105 780.639 242.678 780.492 242.344C780.346 242.002 780.154 241.73 779.918 241.526C779.682 241.323 779.418 241.181 779.125 241.099C778.84 241.018 778.551 240.977 778.258 240.977C777.876 240.977 777.489 241.062 777.099 241.233C776.716 241.404 776.37 241.64 776.061 241.941C775.752 242.243 775.5 242.601 775.304 243.016C775.109 243.423 775.011 243.866 775.011 244.346V252H773.192V243.626C773.192 243.105 773.115 242.678 772.96 242.344C772.814 242.002 772.627 241.73 772.399 241.526C772.171 241.323 771.919 241.181 771.642 241.099C771.374 241.018 771.113 240.977 770.861 240.977C770.381 240.977 769.929 241.091 769.506 241.319C769.091 241.539 768.729 241.823 768.419 242.173C768.11 242.515 767.866 242.894 767.687 243.309C767.508 243.715 767.418 244.106 767.418 244.48V252H765.587V239.573ZM787.56 234.605V236.753H785.741V234.605H787.56ZM787.56 239.573V252H785.741V239.573H787.56ZM799.108 243.394C798.986 242.955 798.831 242.58 798.644 242.271C798.457 241.962 798.237 241.714 797.985 241.526C797.733 241.331 797.444 241.193 797.118 241.111C796.793 241.022 796.431 240.977 796.032 240.977C795.454 240.977 794.941 241.103 794.494 241.355C794.046 241.6 793.668 241.933 793.358 242.356C793.049 242.78 792.813 243.272 792.65 243.833C792.488 244.387 792.406 244.969 792.406 245.579C792.406 246.214 792.488 246.836 792.65 247.447C792.813 248.057 793.049 248.598 793.358 249.07C793.668 249.542 794.042 249.925 794.481 250.218C794.929 250.503 795.43 250.645 795.983 250.645C796.431 250.645 796.825 250.568 797.167 250.413C797.517 250.25 797.818 250.031 798.07 249.754C798.331 249.477 798.542 249.16 798.705 248.802C798.876 248.436 799.002 248.045 799.083 247.63H801.085C800.996 248.354 800.813 249.005 800.536 249.583C800.259 250.153 799.901 250.641 799.462 251.048C799.022 251.447 798.502 251.752 797.899 251.963C797.305 252.175 796.642 252.281 795.91 252.281C795.291 252.281 794.73 252.187 794.225 252C793.729 251.821 793.281 251.573 792.882 251.255C792.492 250.938 792.15 250.564 791.857 250.132C791.572 249.701 791.336 249.237 791.149 248.741C790.962 248.244 790.819 247.728 790.722 247.19C790.632 246.653 790.587 246.116 790.587 245.579C790.587 244.7 790.714 243.882 790.966 243.125C791.226 242.369 791.592 241.714 792.064 241.16C792.545 240.599 793.122 240.159 793.798 239.842C794.473 239.516 795.226 239.354 796.056 239.354C796.78 239.354 797.427 239.455 797.997 239.659C798.567 239.862 799.059 240.147 799.474 240.513C799.889 240.871 800.227 241.299 800.487 241.795C800.748 242.283 800.939 242.816 801.061 243.394H799.108ZM805.602 248.155C805.61 248.611 805.688 248.997 805.834 249.314C805.989 249.632 806.192 249.888 806.444 250.083C806.697 250.279 806.994 250.421 807.335 250.511C807.685 250.6 808.064 250.645 808.471 250.645C808.804 250.645 809.15 250.617 809.508 250.56C809.875 250.494 810.208 250.389 810.509 250.242C810.819 250.096 811.071 249.896 811.266 249.644C811.47 249.392 811.571 249.07 811.571 248.68C811.571 248.33 811.465 248.029 811.254 247.776C811.042 247.524 810.762 247.304 810.412 247.117C810.062 246.922 809.663 246.751 809.215 246.604C808.776 246.45 808.324 246.291 807.86 246.128C807.396 245.958 806.941 245.774 806.493 245.579C806.054 245.384 805.659 245.152 805.309 244.883C804.959 244.607 804.678 244.285 804.467 243.919C804.255 243.545 804.149 243.097 804.149 242.576C804.149 242.031 804.267 241.555 804.503 241.148C804.748 240.741 805.069 240.407 805.468 240.147C805.867 239.878 806.326 239.679 806.847 239.549C807.368 239.419 807.909 239.354 808.471 239.354C809.105 239.354 809.695 239.423 810.241 239.561C810.794 239.691 811.274 239.895 811.681 240.171C812.088 240.448 812.41 240.802 812.646 241.233C812.89 241.657 813.024 242.161 813.048 242.747C812.894 242.747 812.723 242.743 812.536 242.735C812.348 242.727 812.194 242.723 812.072 242.723H811.193C811.152 242.389 811.05 242.112 810.888 241.893C810.733 241.665 810.534 241.486 810.29 241.355C810.054 241.217 809.777 241.119 809.459 241.062C809.15 241.006 808.821 240.977 808.471 240.977C807.665 240.977 807.051 241.128 806.627 241.429C806.204 241.722 805.993 242.112 805.993 242.601C805.993 242.926 806.098 243.211 806.31 243.455C806.522 243.691 806.802 243.903 807.152 244.09C807.502 244.277 807.897 244.452 808.336 244.615C808.784 244.778 809.24 244.944 809.704 245.115C810.176 245.278 810.631 245.457 811.071 245.652C811.518 245.848 811.917 246.076 812.267 246.336C812.617 246.596 812.898 246.902 813.109 247.251C813.321 247.593 813.427 248 813.427 248.472C813.427 249.148 813.292 249.725 813.024 250.206C812.755 250.678 812.393 251.068 811.938 251.377C811.49 251.679 810.965 251.898 810.363 252.037C809.761 252.175 809.13 252.244 808.471 252.244C807.836 252.244 807.234 252.163 806.664 252C806.094 251.829 805.594 251.573 805.163 251.231C804.731 250.889 804.385 250.462 804.125 249.949C803.865 249.437 803.722 248.838 803.698 248.155H805.602ZM825.402 243.125C825.402 244.444 825.573 245.591 825.915 246.568C826.256 247.536 826.704 248.342 827.257 248.985C827.811 249.62 828.441 250.096 829.149 250.413C829.857 250.722 830.574 250.877 831.298 250.877C832.055 250.877 832.738 250.743 833.349 250.474C833.959 250.197 834.488 249.835 834.936 249.388C835.391 248.94 835.762 248.427 836.046 247.85C836.339 247.272 836.547 246.682 836.669 246.08H838.549C838.378 246.975 838.093 247.813 837.694 248.594C837.304 249.367 836.803 250.047 836.193 250.633C835.583 251.211 834.866 251.666 834.044 252C833.231 252.334 832.315 252.5 831.298 252.5C830.118 252.5 829.048 252.289 828.087 251.866C827.135 251.434 826.321 250.816 825.646 250.01C824.979 249.205 824.462 248.22 824.096 247.056C823.729 245.892 823.546 244.574 823.546 243.101C823.546 242.344 823.624 241.6 823.778 240.867C823.933 240.127 824.161 239.427 824.462 238.768C824.763 238.108 825.133 237.502 825.573 236.949C826.02 236.387 826.529 235.903 827.099 235.496C827.668 235.089 828.303 234.772 829.003 234.544C829.703 234.316 830.46 234.202 831.273 234.202C832.307 234.202 833.227 234.34 834.032 234.617C834.838 234.886 835.542 235.264 836.144 235.752C836.746 236.233 837.247 236.81 837.646 237.486C838.052 238.153 838.37 238.882 838.598 239.671H836.645C836.189 238.377 835.526 237.413 834.655 236.778C833.784 236.143 832.657 235.826 831.273 235.826C830.411 235.826 829.617 236.025 828.893 236.424C828.177 236.814 827.558 237.343 827.038 238.011C826.525 238.678 826.122 239.455 825.829 240.342C825.544 241.221 825.402 242.149 825.402 243.125ZM841.527 242.906C841.56 242.295 841.727 241.766 842.028 241.319C842.329 240.871 842.707 240.501 843.163 240.208C843.627 239.915 844.14 239.699 844.701 239.561C845.263 239.423 845.82 239.354 846.374 239.354C846.984 239.354 847.578 239.423 848.156 239.561C848.734 239.691 849.246 239.903 849.694 240.196C850.141 240.489 850.5 240.871 850.768 241.343C851.037 241.807 851.171 242.369 851.171 243.028V249.571C851.171 249.701 851.195 249.831 851.244 249.961C851.293 250.092 851.358 250.21 851.439 250.315C851.521 250.413 851.614 250.494 851.72 250.56C851.834 250.617 851.952 250.645 852.074 250.645C852.164 250.645 852.253 250.637 852.343 250.621C852.44 250.596 852.55 250.564 852.672 250.523V252.024C852.412 252.098 852.188 252.151 852.001 252.183C851.822 252.224 851.623 252.244 851.403 252.244C850.874 252.244 850.434 252.049 850.084 251.658C849.743 251.268 849.547 250.665 849.499 249.852C849.108 250.364 848.721 250.779 848.339 251.097C847.956 251.406 847.574 251.646 847.191 251.817C846.817 251.988 846.435 252.102 846.044 252.159C845.661 252.216 845.271 252.244 844.872 252.244C844.359 252.244 843.879 252.163 843.432 252C842.984 251.837 842.593 251.605 842.26 251.304C841.934 250.995 841.674 250.625 841.479 250.193C841.291 249.762 841.198 249.282 841.198 248.753C841.198 248.224 841.312 247.772 841.54 247.398C841.776 247.015 842.085 246.69 842.467 246.421C842.85 246.153 843.285 245.925 843.773 245.738C844.262 245.551 844.758 245.384 845.263 245.237C845.767 245.091 846.264 244.952 846.752 244.822C847.24 244.692 847.676 244.546 848.058 244.383C848.441 244.22 848.746 244.033 848.974 243.821C849.21 243.602 849.328 243.337 849.328 243.028C849.328 242.304 849.063 241.783 848.534 241.465C848.005 241.14 847.269 240.977 846.325 240.977C845.958 240.977 845.609 241.014 845.275 241.087C844.949 241.16 844.66 241.274 844.408 241.429C844.156 241.583 843.944 241.783 843.773 242.027C843.603 242.271 843.493 242.564 843.444 242.906H841.527ZM849.328 244.981C849.075 245.25 848.742 245.473 848.327 245.652C847.92 245.831 847.48 245.994 847.008 246.141C846.544 246.279 846.072 246.413 845.592 246.543C845.12 246.674 844.693 246.832 844.311 247.02C843.928 247.199 843.615 247.418 843.371 247.679C843.135 247.939 843.017 248.265 843.017 248.655C843.017 249.013 843.078 249.319 843.2 249.571C843.322 249.815 843.485 250.018 843.688 250.181C843.891 250.344 844.119 250.462 844.372 250.535C844.632 250.608 844.892 250.645 845.153 250.645C845.918 250.645 846.662 250.417 847.387 249.961C848.119 249.498 848.766 248.785 849.328 247.825V244.981ZM858.129 235.875V239.573H860.058V241.148H858.129V249.205C858.129 249.481 858.161 249.713 858.227 249.9C858.3 250.079 858.397 250.226 858.52 250.34C858.642 250.446 858.784 250.523 858.947 250.572C859.118 250.621 859.305 250.645 859.508 250.645C859.63 250.645 859.757 250.641 859.887 250.633C860.025 250.617 860.184 250.588 860.363 250.547V252.049C860.135 252.114 859.883 252.163 859.606 252.195C859.337 252.228 859.065 252.244 858.788 252.244C858.454 252.244 858.137 252.199 857.836 252.11C857.535 252.028 857.266 251.894 857.03 251.707C856.802 251.512 856.619 251.264 856.481 250.962C856.351 250.661 856.286 250.291 856.286 249.852V241.148H854.357V239.573H856.286V235.875H858.129ZM863.28 242.906C863.313 242.295 863.48 241.766 863.781 241.319C864.082 240.871 864.46 240.501 864.916 240.208C865.38 239.915 865.893 239.699 866.454 239.561C867.016 239.423 867.573 239.354 868.126 239.354C868.737 239.354 869.331 239.423 869.909 239.561C870.486 239.691 870.999 239.903 871.447 240.196C871.894 240.489 872.252 240.871 872.521 241.343C872.79 241.807 872.924 242.369 872.924 243.028V249.571C872.924 249.701 872.948 249.831 872.997 249.961C873.046 250.092 873.111 250.21 873.192 250.315C873.274 250.413 873.367 250.494 873.473 250.56C873.587 250.617 873.705 250.645 873.827 250.645C873.917 250.645 874.006 250.637 874.096 250.621C874.193 250.596 874.303 250.564 874.425 250.523V252.024C874.165 252.098 873.941 252.151 873.754 252.183C873.575 252.224 873.375 252.244 873.156 252.244C872.627 252.244 872.187 252.049 871.837 251.658C871.496 251.268 871.3 250.665 871.251 249.852C870.861 250.364 870.474 250.779 870.092 251.097C869.709 251.406 869.327 251.646 868.944 251.817C868.57 251.988 868.188 252.102 867.797 252.159C867.414 252.216 867.024 252.244 866.625 252.244C866.112 252.244 865.632 252.163 865.185 252C864.737 251.837 864.346 251.605 864.013 251.304C863.687 250.995 863.427 250.625 863.231 250.193C863.044 249.762 862.951 249.282 862.951 248.753C862.951 248.224 863.065 247.772 863.292 247.398C863.528 247.015 863.838 246.69 864.22 246.421C864.603 246.153 865.038 245.925 865.526 245.738C866.015 245.551 866.511 245.384 867.016 245.237C867.52 245.091 868.017 244.952 868.505 244.822C868.993 244.692 869.429 244.546 869.811 244.383C870.194 244.22 870.499 244.033 870.727 243.821C870.963 243.602 871.081 243.337 871.081 243.028C871.081 242.304 870.816 241.783 870.287 241.465C869.758 241.14 869.022 240.977 868.078 240.977C867.711 240.977 867.361 241.014 867.028 241.087C866.702 241.16 866.413 241.274 866.161 241.429C865.909 241.583 865.697 241.783 865.526 242.027C865.355 242.271 865.246 242.564 865.197 242.906H863.28ZM871.081 244.981C870.828 245.25 870.495 245.473 870.08 245.652C869.673 245.831 869.233 245.994 868.761 246.141C868.297 246.279 867.825 246.413 867.345 246.543C866.873 246.674 866.446 246.832 866.063 247.02C865.681 247.199 865.368 247.418 865.124 247.679C864.888 247.939 864.77 248.265 864.77 248.655C864.77 249.013 864.831 249.319 864.953 249.571C865.075 249.815 865.237 250.018 865.441 250.181C865.644 250.344 865.872 250.462 866.125 250.535C866.385 250.608 866.645 250.645 866.906 250.645C867.671 250.645 868.415 250.417 869.14 249.961C869.872 249.498 870.519 248.785 871.081 247.825V244.981ZM879.357 234.605V252H877.538V234.605H879.357ZM882.384 245.799C882.384 244.912 882.506 244.078 882.75 243.296C883.003 242.515 883.365 241.832 883.837 241.246C884.317 240.66 884.907 240.2 885.607 239.866C886.307 239.524 887.108 239.354 888.012 239.354C888.915 239.354 889.721 239.524 890.429 239.866C891.137 240.2 891.731 240.66 892.211 241.246C892.691 241.832 893.057 242.515 893.31 243.296C893.562 244.078 893.688 244.912 893.688 245.799C893.688 246.686 893.562 247.52 893.31 248.301C893.057 249.083 892.691 249.762 892.211 250.34C891.731 250.918 891.137 251.377 890.429 251.719C889.721 252.053 888.915 252.22 888.012 252.22C887.108 252.22 886.307 252.053 885.607 251.719C884.907 251.377 884.317 250.918 883.837 250.34C883.365 249.762 883.003 249.083 882.75 248.301C882.506 247.52 882.384 246.686 882.384 245.799ZM884.203 245.799C884.203 246.458 884.289 247.081 884.459 247.667C884.639 248.252 884.891 248.761 885.216 249.192C885.55 249.624 885.953 249.965 886.425 250.218C886.897 250.47 887.426 250.596 888.012 250.596C888.598 250.596 889.127 250.47 889.599 250.218C890.071 249.965 890.469 249.624 890.795 249.192C891.129 248.761 891.385 248.252 891.564 247.667C891.743 247.081 891.833 246.458 891.833 245.799C891.833 245.14 891.743 244.517 891.564 243.931C891.385 243.345 891.129 242.833 890.795 242.393C890.469 241.954 890.071 241.608 889.599 241.355C889.127 241.103 888.598 240.977 888.012 240.977C887.426 240.977 886.897 241.103 886.425 241.355C885.953 241.608 885.55 241.954 885.216 242.393C884.891 242.833 884.639 243.345 884.459 243.931C884.289 244.517 884.203 245.14 884.203 245.799ZM907.128 252.305C907.128 253.16 906.981 253.912 906.688 254.563C906.396 255.215 906.005 255.76 905.517 256.199C905.028 256.639 904.467 256.968 903.832 257.188C903.205 257.416 902.554 257.53 901.879 257.53C901.293 257.53 900.744 257.457 900.231 257.31C899.718 257.164 899.246 256.936 898.815 256.626C898.384 256.317 898.001 255.923 897.667 255.442C897.334 254.97 897.053 254.405 896.825 253.746H898.668C899.01 254.502 899.442 255.048 899.962 255.381C900.483 255.723 901.122 255.894 901.879 255.894C902.343 255.894 902.778 255.805 903.185 255.625C903.6 255.455 903.962 255.215 904.271 254.905C904.581 254.596 904.825 254.226 905.004 253.794C905.183 253.371 905.272 252.907 905.272 252.403V250.23C904.841 250.905 904.316 251.418 903.698 251.768C903.087 252.11 902.461 252.281 901.818 252.281C900.972 252.281 900.211 252.11 899.535 251.768C898.868 251.426 898.294 250.962 897.814 250.376C897.342 249.782 896.98 249.091 896.728 248.301C896.475 247.512 896.349 246.67 896.349 245.774C896.349 244.879 896.475 244.041 896.728 243.26C896.98 242.479 897.338 241.799 897.802 241.221C898.266 240.643 898.823 240.188 899.474 239.854C900.125 239.52 900.849 239.354 901.647 239.354C901.924 239.354 902.217 239.386 902.526 239.451C902.843 239.508 903.161 239.614 903.478 239.769C903.795 239.915 904.105 240.118 904.406 240.379C904.715 240.639 905.004 240.965 905.272 241.355V239.573H907.128V252.305ZM905.272 245.628C905.256 244.985 905.171 244.383 905.016 243.821C904.861 243.252 904.642 242.759 904.357 242.344C904.072 241.921 903.722 241.587 903.307 241.343C902.892 241.099 902.424 240.977 901.903 240.977C901.366 240.977 900.87 241.103 900.414 241.355C899.958 241.6 899.564 241.941 899.23 242.381C898.896 242.812 898.636 243.321 898.449 243.907C898.262 244.485 898.168 245.107 898.168 245.774C898.168 246.442 898.262 247.072 898.449 247.667C898.636 248.252 898.896 248.769 899.23 249.217C899.564 249.656 899.958 250.006 900.414 250.267C900.87 250.519 901.366 250.645 901.903 250.645C902.44 250.645 902.917 250.519 903.332 250.267C903.755 250.014 904.109 249.673 904.394 249.241C904.678 248.802 904.894 248.289 905.041 247.703C905.195 247.117 905.272 246.491 905.272 245.823V245.628Z" fill="black"/>
<defs>
<filter id="filter0_d_7_153" x="464.106" y="84.8358" width="142.788" height="141.332" filterUnits="userSpaceOnUse" color-interpolation-filters="sRGB">
<feFlood flood-opacity="0" result="BackgroundImageFix"/>
<feColorMatrix in="SourceAlpha" type="matrix" values="0 0 0 0 0 0 0 0 0 0 0 0 0 0 0 0 0 0 127 0" result="hardAlpha"/>
<feOffset dy="4"/>
<feGaussianBlur stdDeviation="2"/>
<feComposite in2="hardAlpha" operator="out"/>
<feColorMatrix type="matrix" values="0 0 0 0 0 0 0 0 0 0 0 0 0 0 0 0 0 0 0.25 0"/>
<feBlend mode="normal" in2="BackgroundImageFix" result="effect1_dropShadow_7_153"/>
<feBlend mode="normal" in="SourceGraphic" in2="effect1_dropShadow_7_153" result="shape"/>
</filter>
<linearGradient id="paint0_linear_7_153" x1="535.5" y1="81.37" x2="535.5" y2="221.63" gradientUnits="userSpaceOnUse">
<stop stop-color="#2A2934"/>
<stop offset="1" stop-color="#7C799A"/>
</linearGradient>
</defs>
</svg>
