<?xml version="1.0" encoding="UTF-8"?>
<svg id="Layer_2" data-name="Layer 2" xmlns="http://www.w3.org/2000/svg" viewBox="0 0 56.45 36">
  <defs>
    <style>
      .cls-1 {
        fill: #fff;
        stroke-width: 0px;
      }
    </style>
  </defs>
  <g id="Layer_2-2" data-name="Layer 2">
    <g>
      <g>
        <path class="cls-1" d="m50.98,29.87c-.64,0-1.13-.5-1.13-1.15s.48-1.15,1.13-1.15,1.14.5,1.14,1.15-.49,1.15-1.14,1.15m0-2.55c-.79,0-1.4.61-1.4,1.4s.61,1.4,1.4,1.4,1.41-.61,1.41-1.4-.62-1.4-1.41-1.4"/>
        <path class="cls-1" d="m51.01,28.64h-.26v-.4h.28c.12,0,.2.08.2.2,0,.1-.07.2-.22.2m.24.13c.14-.08.23-.2.23-.34,0-.23-.16-.37-.41-.37h-.59v1.3h.26v-.53h.24l.31.53h.28l-.35-.58h.02Z"/>
      </g>
      <path class="cls-1" d="m29.32,22.6c-.04.11-.16.12-.16.12-2,.06-3.72.87-5.09,2.4,0,0-.15.15-.54-.16-.3-.23-.19-.48-.19-.48.53-1.33,1.9-2.21,4.06-2.61h.06c.44-.07,1.47-.21,1.82.48,0,0,.08.13.04.25m6.18,6.62v-.02c.75-1.1,1.81-2.52,2.18-2.78.03-.01.05-.02.08-.03,1.14-.07,1.78-.46,1.95-.58.22-.15.85-.76.95-.88.11-.11.44-.85.57-1.16h0s-.01.03-.01.03l.05-.12v-.03s.1-.27.1-.27c0-.08-.05-.15-.12-.19-.05-.03-.11-.03-.18-.02,0,0,0-.02,0-.02.04-.09.08-.2.08-.28v-.02c-.01-.09-.06-.15-.13-.2-.08-.04-.18-.04-.28-.02-.05-.07-.11-.11-.12-.11-.02-.02-.15-.06-.38.08-.09.05-.18.15-.25.24,0-.07.02-.14.02-.14-.02-.08-.08-.14-.16-.17-.11-.04-.25-.01-.38.07-.15.1-.34.41-.4.5-.05.04-.24.21-.36.41-.37.12-.6.11-.7.08.23-.13.4-.25.5-.37.22-.27.35-.54.35-.77,0-.04,0-.08,0-.11-.02-.11-.08-.19-.16-.23-.22-.11-.49.11-.54.16,0,0-.08.08-.12.13-.08.02-.26.07-.38.18-.08.07-.18.11-.29.14-.14.05-.29.1-.44.23h-.01s0,0,.01,0c-.03.02-.27.18-.35.23-.35.18-.54.37-.74.57-.4.39-.89.88-3.11,1.61-.02-.81-.52-2.99-.62-3.83-.2-1.47-1.91-3.5-3.14-4.79,1.16.67,1.81.77,2.45-.1.17-.26.43.02.68-.03.35-.18.31-.28.31-.53.1-.27.38-.14.58-.17.52-.09.21-.63.41-.9,2.27-.14-.29-2.22,1.24-3.09.99-.46,1.37-1.08,1.81-1.68.37-.49.44-.11.72-.51.49-1.78-.36-3.97-1.46-5.48-5.64-7.25-12.07-3.91-13.95.58-.78,1.14-.54,2.8-.58,4.16-.15.47-.43.46-.84.18-.09.94.64,1.13.97,1.19.03.12.25.3.34.43-.29.08-.91-.08-1.11-.19,0,.21.02.39.19.58.14.67.48.91.96,1.1.9.37.48,1.61.37,2.12-.03.11-.07.22-.1.33-.84.21-1.39.97-1.62,1.76-.1,1.9-1.08,3.48-1.07,5.45,0,0-.02.29,0,.41.49,2.13-.14,4.92-.03,7.12-7.11,1.06-13.64,3.34-19.22,6.56,8.27-3.33,17.91-5.24,28.22-5.24s19.96,1.92,28.22,5.24c-6.02-3.47-13.17-5.86-20.95-6.79"/>
    </g>
  </g>
</svg>